<svg width="69" height="44" viewBox="0 0 69 44" fill="none" xmlns="http://www.w3.org/2000/svg">
<rect width="69" height="44" rx="5" fill="#31364A" fill-opacity="0.55"/>
<rect x="19.1094" y="11.3184" width="32.5469" height="21.7871" rx="3.5" fill="#006FCF" stroke="#F3F3F3"/>
<path fill-rule="evenodd" clip-rule="evenodd" d="M25.471 27.2785V22.5875H30.8638L31.4424 23.2822L32.0401 22.5875H51.6145V26.955C51.6145 26.955 51.1026 27.2738 50.5106 27.2785H39.6718L39.0195 26.539V27.2785H36.8818V26.0162C36.8818 26.0162 36.5898 26.1924 35.9585 26.1924H35.2309V27.2785H31.9944L31.4166 26.5689L30.83 27.2785H25.471ZM19.1877 19.0519L20.4011 16.4406H22.4994L23.188 17.9033V16.4406H25.7964L26.2063 17.4978L26.6037 16.4406H38.3128V16.9721C38.3128 16.9721 38.9283 16.4406 39.9399 16.4406L43.7391 16.4529L44.4158 17.8965V16.4406H46.5987L47.1994 17.2698V16.4406H49.4023V21.1316H47.1994L46.6237 20.2997V21.1316H43.4166L43.0941 20.3922H42.2319L41.9146 21.1316H39.7397C38.8692 21.1316 38.3128 20.611 38.3128 20.611V21.1316H35.0335L34.3827 20.3922V21.1316H22.1886L21.8663 20.3922H21.0068L20.6868 21.1316H19.1877V19.0519ZM19.1941 20.5314L20.8306 17.0189H22.0713L23.7062 20.5314H22.6173L22.3169 19.828H20.5615L20.2595 20.5314H19.1941ZM21.9712 19.0655L21.4361 17.8364L20.8995 19.0655H21.9712ZM23.8188 20.5308V17.0183L25.3329 17.0235L26.2136 19.2882L27.0731 17.0183H28.5751V20.5308H27.6238V17.9427L26.6155 20.5308H25.7812L24.7701 17.9427V20.5308H23.8188ZM29.2259 20.5308V17.0183H32.33V17.804H30.1872V18.4049H32.2799V19.1443H30.1872V19.7683H32.33V20.5308H29.2259ZM32.8806 20.5314V17.0189H34.9975C35.6989 17.0189 36.3273 17.4193 36.3273 18.1584C36.3273 18.7903 35.7975 19.1973 35.2838 19.2373L36.5354 20.5314H35.373L34.2324 19.2835H33.8319V20.5314H32.8806ZM34.9193 17.8045H33.832V18.544H34.9334C35.1241 18.544 35.3699 18.4076 35.3699 18.1743C35.3699 17.9929 35.1802 17.8045 34.9193 17.8045ZM37.687 20.5308H36.7157V17.0183H37.687V20.5308ZM39.99 20.5308H39.7803C38.7659 20.5308 38.1501 19.7931 38.1501 18.789C38.1501 17.7602 38.759 17.0183 40.04 17.0183H41.0914V17.8503H40.0016C39.4816 17.8503 39.1138 18.2249 39.1138 18.7977C39.1138 19.4779 39.5343 19.7636 40.1402 19.7636H40.3905L39.99 20.5308ZM40.4235 20.5314L42.06 17.0189H43.3007L44.9356 20.5314H43.8467L43.5463 19.828H41.7909L41.4889 20.5314H40.4235ZM43.2006 19.0655L42.6656 17.8364L42.1289 19.0655H43.2006ZM45.0467 20.5308V17.0183H46.2561L47.8003 19.2252V17.0183H48.7515V20.5308H47.5812L45.9979 18.2662V20.5308H45.0467ZM26.1219 26.6777V23.1652H29.2259V23.9509H27.0831V24.5517H29.1759V25.2912H27.0831V25.9151H29.2259V26.6777H26.1219ZM41.3318 26.6777V23.1652H44.4359V23.9509H42.293V24.5517H44.3758V25.2912H42.293V25.9151H44.4359V26.6777H41.3318ZM29.3463 26.6777L30.8577 24.9431L29.3103 23.1652H30.5088L31.4303 24.2643L32.355 23.1652H33.5065L31.9795 24.9214L33.4936 26.6777H32.2954L31.4006 25.5959L30.5276 26.6777H29.3463ZM33.6067 26.6782V23.1657H35.7079C36.5701 23.1657 37.0738 23.6787 37.0738 24.3472C37.0738 25.1541 36.4316 25.569 35.5843 25.569H34.583V26.6782H33.6067ZM35.6374 23.9601H34.5829V24.7689H35.6343C35.9121 24.7689 36.1068 24.5989 36.1068 24.3645C36.1068 24.115 35.9111 23.9601 35.6374 23.9601ZM37.4868 26.6777V23.1652H39.6036C40.305 23.1652 40.9335 23.5656 40.9335 24.3047C40.9335 24.9366 40.4036 25.3436 39.89 25.3836L41.1416 26.6777H39.9791L38.8386 25.4298H38.4381V26.6777H37.4868ZM39.5255 23.9509H38.4381V24.6903H39.5395C39.7302 24.6903 39.9761 24.5539 39.9761 24.3206C39.9761 24.1392 39.7863 23.9509 39.5255 23.9509ZM44.8764 26.6777V25.9151H46.7801C47.0618 25.9151 47.1838 25.7746 47.1838 25.6205C47.1838 25.4728 47.0622 25.3235 46.7801 25.3235H45.9198C45.172 25.3235 44.7556 24.903 44.7556 24.2715C44.7556 23.7083 45.137 23.1652 46.2482 23.1652H48.1006L47.7001 23.9555H46.098C45.7917 23.9555 45.6974 24.1039 45.6974 24.2455C45.6974 24.3911 45.8139 24.5517 46.0479 24.5517H46.9491C47.7827 24.5517 48.1444 24.9882 48.1444 25.5598C48.1444 26.1744 47.7413 26.6777 46.9037 26.6777H44.8764ZM48.2284 26.6777V25.9151H50.1321C50.4138 25.9151 50.5357 25.7746 50.5357 25.6205C50.5357 25.4728 50.4142 25.3235 50.1321 25.3235H49.2718C48.524 25.3235 48.1076 24.903 48.1076 24.2715C48.1076 23.7083 48.4889 23.1652 49.6001 23.1652H51.4526L51.052 23.9555H49.45C49.1437 23.9555 49.0494 24.1039 49.0494 24.2455C49.0494 24.3911 49.1659 24.5517 49.3999 24.5517H50.3011C51.1347 24.5517 51.4964 24.9882 51.4964 25.5598C51.4964 26.1744 51.0933 26.6777 50.2557 26.6777H48.2284Z" fill="white"/>
</svg>
