<svg width="69" height="44" viewBox="0 0 69 44" fill="none" xmlns="http://www.w3.org/2000/svg">
<rect width="69" height="44" rx="5" fill="#31364A" fill-opacity="0.55"/>
<path fill-rule="evenodd" clip-rule="evenodd" d="M54.5633 18.6558C56.1965 18.6558 57.0948 19.3971 57.0948 20.7972C57.1764 21.868 56.4415 22.774 55.4616 22.9387L57.6664 25.9862H55.9515L54.0733 23.0211H53.91V25.9862H52.5217V18.6558H54.5633ZM53.91 22.0328H54.3183C55.2166 22.0328 55.6249 21.6209 55.6249 20.8797C55.6249 20.2207 55.2166 19.8089 54.3183 19.8089H53.91V22.0328ZM47.7037 25.9862H51.6235V24.7507H49.092V22.774H51.5418V21.5385H49.092V19.8912H51.6235V18.6558H47.7037V25.9862ZM43.6205 23.5976L41.7423 18.6558H40.2724L43.2939 26.1509H44.0288L47.0503 18.6558H45.5804L43.6205 23.5976ZM27.0434 22.3621C27.0434 24.4212 28.6766 26.1509 30.7181 26.1509C31.3714 26.1509 31.9431 25.9861 32.5147 25.739V24.0918C32.1064 24.5859 31.5348 24.9154 30.8815 24.9154C29.5749 24.9154 28.5133 23.927 28.5133 22.6092V22.4445C28.4316 21.1267 29.4932 19.9736 30.7998 19.8912C31.4531 19.8912 32.1064 20.2206 32.5147 20.7148V19.0676C32.0247 18.7381 31.3714 18.6557 30.7998 18.6557C28.6766 18.491 27.0434 20.2206 27.0434 22.3621ZM24.5118 21.4561C23.6952 21.1267 23.4502 20.962 23.4502 20.5501C23.5319 20.056 23.9402 19.6441 24.4302 19.7265C24.8385 19.7265 25.2468 19.9736 25.5734 20.3031L26.3084 19.3147C25.7368 18.8205 25.0018 18.491 24.2669 18.491C23.1236 18.4087 22.1437 19.3147 22.062 20.4678V20.5501C22.062 21.5385 22.4703 22.1151 23.7769 22.5269C24.1035 22.6092 24.4302 22.774 24.7568 22.9387C25.0018 23.1034 25.1651 23.3505 25.1651 23.68C25.1651 24.2565 24.6752 24.7507 24.1852 24.7507H24.1035C23.4502 24.7507 22.8786 24.3389 22.6336 23.7623L21.7353 24.6683C22.2253 25.5743 23.2053 26.0685 24.1852 26.0685C25.4918 26.1509 26.5534 25.1625 26.635 23.8447V23.5976C26.5534 22.6092 26.1451 22.1151 24.5118 21.4561ZM19.7755 25.9862H21.1637V18.6558H19.7755V25.9862ZM13.3242 18.6558H15.3658H15.7741C17.7339 18.7381 19.2855 20.3854 19.2038 22.3622C19.2038 23.4329 18.7139 24.4213 17.8973 25.1625C17.1623 25.7391 16.264 26.0685 15.3658 25.9862H13.3242V18.6558ZM15.1208 24.7507C15.7741 24.833 16.509 24.5859 16.999 24.1741C17.489 23.6799 17.734 23.021 17.734 22.2798C17.734 21.6208 17.489 20.9619 16.999 20.4677C16.509 20.0559 15.7741 19.8088 15.1208 19.8912H14.7125V24.7507H15.1208Z" fill="#E6F5FF"/>
<path fill-rule="evenodd" clip-rule="evenodd" d="M36.6795 18.4858C34.6379 18.4858 32.923 20.1331 32.923 22.2746C32.923 24.3337 34.5563 26.0633 36.6795 26.1457C38.8027 26.2281 40.4359 24.4984 40.5176 22.3569C40.4359 20.2155 38.8027 18.4858 36.6795 18.4858V18.4858Z" fill="#FD6020"/>
</svg>
