<svg width="69" height="44" viewBox="0 0 69 44" fill="none" xmlns="http://www.w3.org/2000/svg">
<rect width="69" height="44" rx="5" fill="#31364A" fill-opacity="0.55"/>
<path d="M40.1546 27.875H30.79V11.4723H40.1546V27.875Z" fill="#6C6BBD"/>
<path d="M31.3845 19.674C31.3845 16.3466 32.983 13.3827 35.4721 11.4726C33.6519 10.0759 31.3546 9.2422 28.858 9.2422C22.9474 9.2422 18.1562 13.9126 18.1562 19.674C18.1562 25.4354 22.9474 30.1058 28.858 30.1058C31.3546 30.1058 33.6519 29.2721 35.4721 27.8754C32.983 25.9653 31.3845 23.0014 31.3845 19.674Z" fill="#EB001B"/>
<path d="M52.7884 19.674C52.7884 25.4354 47.9973 30.1058 42.0867 30.1058C39.5901 30.1058 37.2928 29.2721 35.4719 27.8754C37.9617 25.9653 39.5601 23.0014 39.5601 19.674C39.5601 16.3466 37.9617 13.3827 35.4719 11.4726C37.2928 10.0759 39.5901 9.2422 42.0867 9.2422C47.9973 9.2422 52.7884 13.9126 52.7884 19.674Z" fill="#0099DF"/>
<path d="M43.323 32.5099C43.4476 32.5099 43.6265 32.5331 43.7633 32.5855L43.5728 33.1533C43.4421 33.1009 43.3115 33.0836 43.1863 33.0836C42.7821 33.0836 42.58 33.3383 42.58 33.7959V35.3492H41.9614V32.5796H42.5738V32.9158C42.7344 32.6724 42.9665 32.5099 43.323 32.5099Z" fill="white"/>
<path d="M41.0381 33.1301H40.0276V34.3816C40.0276 34.6595 40.1283 34.8452 40.4379 34.8452C40.5985 34.8452 40.8006 34.7928 40.9844 34.6887L41.1626 35.204C40.9667 35.3373 40.6577 35.4189 40.3903 35.4189C39.6588 35.4189 39.4036 35.0362 39.4036 34.3929V33.1301H38.8266V32.5796H39.4036V31.7393H40.0276V32.5796H41.0381V33.1301Z" fill="white"/>
<path fill-rule="evenodd" clip-rule="evenodd" d="M33.8919 32.51C34.6887 32.51 35.2358 33.1009 35.2419 33.9644C35.2419 34.0447 35.2359 34.1191 35.2298 34.194L35.2297 34.1959H33.1196C33.2087 34.694 33.5714 34.8737 33.9695 34.8737C34.2546 34.8737 34.5581 34.7696 34.7956 34.5839L35.099 35.0302C34.754 35.3141 34.3621 35.4182 33.9341 35.4182C33.0835 35.4182 32.4772 34.8445 32.4772 33.9644C32.4772 33.1009 33.0597 32.51 33.8919 32.51ZM33.8803 33.0485C33.44 33.0485 33.191 33.3211 33.125 33.721H34.5996C34.5342 33.2919 34.2784 33.0485 33.8803 33.0485Z" fill="white"/>
<path d="M37.9583 33.2866C37.7861 33.1818 37.4357 33.0485 37.073 33.0485C36.7341 33.0485 36.532 33.1706 36.532 33.3735C36.532 33.5585 36.7457 33.6109 37.0131 33.6454L37.3043 33.6859C37.9229 33.7734 38.2971 34.0281 38.2971 34.5149C38.2971 35.0422 37.8215 35.4189 37.0015 35.4189C36.5375 35.4189 36.1094 35.3028 35.7706 35.0594L36.0618 34.5898C36.27 34.7464 36.5796 34.8797 37.0077 34.8797C37.4295 34.8797 37.6555 34.7583 37.6555 34.5434C37.6555 34.3876 37.4949 34.3 37.156 34.2543L36.8648 34.2138C36.2285 34.1263 35.8835 33.8484 35.8835 33.3967C35.8835 32.8462 36.3476 32.51 37.0669 32.51C37.5187 32.51 37.929 32.6088 38.2257 32.7998L37.9583 33.2866Z" fill="white"/>
<path fill-rule="evenodd" clip-rule="evenodd" d="M46.1952 32.6221C46.0074 32.5471 45.8033 32.51 45.5828 32.51C45.3623 32.51 45.1582 32.5471 44.9704 32.6221C44.7826 32.6963 44.6213 32.7991 44.4852 32.9298C44.3491 33.0605 44.2423 33.215 44.1647 33.3927C44.0871 33.5711 44.0483 33.7648 44.0483 33.9737C44.0483 34.1826 44.0871 34.3763 44.1647 34.5547C44.2423 34.7324 44.3491 34.8876 44.4852 35.0183C44.6213 35.1489 44.7826 35.2511 44.9704 35.326C45.1582 35.4003 45.3623 35.4374 45.5828 35.4374C45.8033 35.4374 46.0074 35.4003 46.1952 35.326C46.383 35.2511 46.5457 35.1489 46.6824 35.0183C46.8199 34.8876 46.9267 34.7324 47.0043 34.5547C47.0819 34.3763 47.1206 34.1826 47.1206 33.9737C47.1206 33.7648 47.0819 33.5711 47.0043 33.3927C46.9267 33.215 46.8199 33.0605 46.6824 32.9298C46.5457 32.7991 46.383 32.6963 46.1952 32.6221ZM45.2282 33.1473C45.3378 33.1042 45.4555 33.0823 45.5827 33.0823C45.71 33.0823 45.8284 33.1042 45.9373 33.1473C46.0468 33.1911 46.1421 33.2521 46.2217 33.3304C46.3027 33.4086 46.3653 33.5028 46.4115 33.6122C46.4571 33.7217 46.4796 33.8424 46.4796 33.9737C46.4796 34.1057 46.4571 34.2257 46.4115 34.3351C46.3653 34.4446 46.3027 34.5388 46.2217 34.617C46.1421 34.6953 46.0468 34.7563 45.9373 34.8001C45.8284 34.8438 45.71 34.8651 45.5827 34.8651C45.4555 34.8651 45.3378 34.8438 45.2282 34.8001C45.1193 34.7563 45.0248 34.6953 44.9451 34.617C44.8655 34.5388 44.8029 34.4446 44.7573 34.3351C44.7117 34.2257 44.6893 34.1057 44.6893 33.9737C44.6893 33.8424 44.7117 33.7217 44.7573 33.6122C44.8029 33.5028 44.8655 33.4086 44.9451 33.3304C45.0248 33.2521 45.1193 33.1911 45.2282 33.1473Z" fill="white"/>
<path fill-rule="evenodd" clip-rule="evenodd" d="M31.8137 32.5796V33.9644V35.3492H31.1958V35.013C30.9992 35.2623 30.7025 35.4189 30.2983 35.4189C29.5015 35.4189 28.8775 34.81 28.8775 33.9644C28.8775 33.1182 29.5015 32.51 30.2983 32.51C30.7025 32.51 30.9992 32.6665 31.1958 32.9159V32.5796H31.8137ZM30.3752 33.0777C29.8403 33.0777 29.513 33.4776 29.513 33.9644C29.513 34.4512 29.8403 34.8505 30.3752 34.8505C30.8862 34.8505 31.2312 34.4684 31.2312 33.9644C31.2312 33.4604 30.8862 33.0777 30.3752 33.0777Z" fill="white"/>
<path d="M28.3305 35.3492V33.6109C28.3305 32.9563 27.9025 32.5159 27.2132 32.5099C26.8505 32.504 26.4756 32.6141 26.2143 33.0027C26.0183 32.6956 25.7087 32.5099 25.2745 32.5099C24.9717 32.5099 24.6744 32.5968 24.4423 32.9211V32.5796H23.8245V35.3492H24.4485V33.8138C24.4485 33.333 24.722 33.0777 25.1439 33.0777C25.5542 33.0777 25.7624 33.3383 25.7624 33.8079V35.3492H26.3864V33.8138C26.3864 33.333 26.6722 33.0777 27.0819 33.0777C27.5044 33.0777 27.7065 33.3383 27.7065 33.8079V35.3492H28.3305V35.3492Z" fill="white"/>
</svg>
