<svg width="69" height="44" viewBox="0 0 69 44" fill="none" xmlns="http://www.w3.org/2000/svg">
<rect width="69" height="44" rx="5" fill="#31364A" fill-opacity="0.55"/>
<path fill-rule="evenodd" clip-rule="evenodd" d="M27.9572 32.6239V34.0112V35.3986H27.3382V35.0617C27.1419 35.3115 26.844 35.4684 26.4391 35.4684C25.6408 35.4684 25.015 34.8591 25.015 34.0112C25.015 33.1641 25.6408 32.5541 26.4391 32.5541C26.844 32.5541 27.1419 32.7109 27.3382 32.9608V32.6239H27.9572ZM26.5161 33.1229C25.9802 33.1229 25.6523 33.5235 25.6523 34.0112C25.6523 34.4989 25.9802 34.8996 26.5161 34.8996C27.028 34.8996 27.3737 34.5162 27.3737 34.0112C27.3737 33.5063 27.028 33.1229 26.5161 33.1229ZM48.8749 34.0112C48.8749 33.5235 49.2028 33.1229 49.7387 33.1229C50.2513 33.1229 50.5963 33.5063 50.5963 34.0112C50.5963 34.5162 50.2513 34.8996 49.7387 34.8996C49.2028 34.8996 48.8749 34.4989 48.8749 34.0112ZM51.1805 31.5096V34.0112V35.3986H50.5608V35.0617C50.3645 35.3115 50.0666 35.4684 49.6616 35.4684C48.8633 35.4684 48.2375 34.8591 48.2375 34.0112C48.2375 33.1641 48.8633 32.5541 49.6616 32.5541C50.0666 32.5541 50.3645 32.7109 50.5608 32.9608V31.5096H51.1805ZM35.6408 33.0943C36.0396 33.0943 36.2959 33.3382 36.3614 33.7674H34.8841C34.9502 33.3667 35.1998 33.0943 35.6408 33.0943ZM34.2351 34.0112C34.2351 33.1462 34.8187 32.5541 35.6531 32.5541C36.4507 32.5541 36.9988 33.1462 37.0049 34.0112C37.0049 34.0923 36.9988 34.1681 36.9927 34.2431H34.8787C34.968 34.7428 35.3313 34.9229 35.7301 34.9229C36.0158 34.9229 36.3198 34.8179 36.5584 34.6325L36.8618 35.0797C36.5161 35.364 36.1235 35.4684 35.6947 35.4684C34.8425 35.4684 34.2351 34.8936 34.2351 34.0112ZM43.1274 34.0112C43.1274 33.5235 43.4553 33.1229 43.9911 33.1229C44.5031 33.1229 44.8487 33.5063 44.8487 34.0112C44.8487 34.5162 44.5031 34.8996 43.9911 34.8996C43.4553 34.8996 43.1274 34.4989 43.1274 34.0112ZM45.4323 32.6239V34.0112V35.3986H44.8133V35.0617C44.6163 35.3115 44.319 35.4684 43.9141 35.4684C43.1158 35.4684 42.49 34.8591 42.49 34.0112C42.49 33.1641 43.1158 32.5541 43.9141 32.5541C44.319 32.5541 44.6163 32.7109 44.8133 32.9608V32.6239H45.4323ZM39.6315 34.0112C39.6315 34.8531 40.2328 35.4684 41.1504 35.4684C41.5792 35.4684 41.8648 35.3753 42.1743 35.1375L41.8771 34.6498C41.6446 34.8126 41.4006 34.8996 41.132 34.8996C40.6377 34.8936 40.2744 34.5455 40.2744 34.0112C40.2744 33.477 40.6377 33.1289 41.132 33.1229C41.4006 33.1229 41.6446 33.2099 41.8771 33.3727L42.1743 32.885C41.8648 32.6472 41.5792 32.5541 41.1504 32.5541C40.2328 32.5541 39.6315 33.1694 39.6315 34.0112ZM46.8617 32.9608C47.0226 32.7169 47.2551 32.5541 47.6123 32.5541C47.7377 32.5541 47.9163 32.5774 48.0534 32.6299L47.8625 33.1986C47.7316 33.1462 47.6007 33.1289 47.4753 33.1289C47.0703 33.1289 46.8679 33.384 46.8679 33.8431V35.3986H46.2482V32.6239H46.8617V32.9608ZM31.0188 32.8445C30.7208 32.6531 30.3105 32.5541 29.8578 32.5541C29.1365 32.5541 28.6723 32.891 28.6723 33.4425C28.6723 33.895 29.0179 34.174 29.6546 34.2611L29.9471 34.3016C30.2866 34.3481 30.4468 34.4352 30.4468 34.592C30.4468 34.8066 30.2205 34.9288 29.7978 34.9288C29.369 34.9288 29.0595 34.7953 28.8509 34.6385L28.5591 35.1082C28.8986 35.3521 29.3274 35.4684 29.7917 35.4684C30.6138 35.4684 31.0903 35.091 31.0903 34.5627C31.0903 34.075 30.7154 33.8199 30.0957 33.7328L29.8039 33.6917C29.536 33.6571 29.3213 33.6053 29.3213 33.4192C29.3213 33.2159 29.5238 33.0943 29.8633 33.0943C30.2266 33.0943 30.5784 33.2279 30.7508 33.3322L31.0188 32.8445ZM38.2559 32.9608C38.4161 32.7169 38.6485 32.5541 39.0058 32.5541C39.1312 32.5541 39.3098 32.5774 39.4468 32.6299L39.2559 33.1986C39.1251 33.1462 38.9942 33.1289 38.8687 33.1289C38.4638 33.1289 38.2613 33.384 38.2613 33.8431V35.3986H37.6423V32.6239H38.2559V32.9608ZM33.723 32.6239H32.7107V31.7821H32.0849V32.6239H31.5075V33.1754H32.0849V34.4411C32.0849 35.085 32.3412 35.4684 33.0734 35.4684C33.342 35.4684 33.6515 35.3873 33.8478 35.2537L33.6692 34.7368C33.4844 34.8411 33.282 34.8936 33.1211 34.8936C32.8116 34.8936 32.7107 34.7076 32.7107 34.4292V33.1754H33.723V32.6239ZM24.4675 33.6571V35.3986H23.8417V33.8544C23.8417 33.384 23.6392 33.1229 23.2166 33.1229C22.8055 33.1229 22.5198 33.3787 22.5198 33.8604V35.3986H21.894V33.8544C21.894 33.384 21.6861 33.1229 21.275 33.1229C20.8517 33.1229 20.5776 33.3787 20.5776 33.8604V35.3986H19.9525V32.6239H20.5722V32.9661C20.8047 32.6412 21.1019 32.5541 21.4059 32.5541C21.8409 32.5541 22.1504 32.7402 22.3467 33.0478C22.6091 32.6585 22.9841 32.5482 23.3474 32.5541C24.0387 32.5601 24.4675 33.0013 24.4675 33.6571Z" fill="white"/>
<path d="M40.1953 27.9092H30.8135V11.4763H40.1953V27.9092Z" fill="#FF5F00"/>
<path d="M31.4088 19.6931C31.4088 16.3596 33.0101 13.3903 35.5038 11.4767C33.6802 10.0774 31.3788 9.24219 28.8776 9.24219C22.9562 9.24219 18.1562 13.9211 18.1562 19.6931C18.1562 25.465 22.9562 30.144 28.8776 30.144C31.3788 30.144 33.6802 29.3088 35.5038 27.9095C33.0101 25.9959 31.4088 23.0265 31.4088 19.6931Z" fill="#EB001B"/>
<path d="M52.852 19.6931C52.852 25.465 48.0521 30.144 42.1307 30.144C39.6295 30.144 37.328 29.3088 35.5038 27.9095C37.9982 25.9959 39.5995 23.0265 39.5995 19.6931C39.5995 16.3596 37.9982 13.3903 35.5038 11.4767C37.328 10.0774 39.6295 9.24219 42.1307 9.24219C48.0521 9.24219 52.852 13.9211 52.852 19.6931Z" fill="#F79E1B"/>
</svg>
