<svg width="17" height="17" viewBox="0 0 17 17" fill="none" xmlns="http://www.w3.org/2000/svg">
<path d="M15.5833 7.15416C15.6542 6.8 15.3708 6.375 15.0167 6.375L10.9792 5.80833L9.13749 2.125C9.06666 1.98333 8.99582 1.9125 8.85416 1.84166C8.49999 1.62916 8.07499 1.77083 7.86249 2.125L6.09166 5.80833L2.05416 6.375C1.84166 6.375 1.69999 6.44583 1.62916 6.5875C1.34582 6.87083 1.34582 7.29583 1.62916 7.57916L4.53332 10.4125L3.82499 14.45C3.82499 14.5917 3.82499 14.7333 3.89582 14.875C4.10832 15.2292 4.53332 15.3708 4.88749 15.1583L8.49999 13.2458L12.1125 15.1583C12.1833 15.2292 12.325 15.2292 12.4667 15.2292C12.5375 15.2292 12.5375 15.2292 12.6083 15.2292C12.9625 15.1583 13.2458 14.8042 13.175 14.3792L12.4667 10.3417L15.3708 7.50833C15.5125 7.4375 15.5833 7.29583 15.5833 7.15416Z" fill="#FF922E"/>
</svg>
