<svg width="69" height="44" viewBox="0 0 69 44" fill="none" xmlns="http://www.w3.org/2000/svg">
<rect width="69" height="44" rx="5" fill="#31364A" fill-opacity="0.55"/>
<path d="M26.2429 12.6281H33.9158C34.9869 12.6281 35.6531 13.5099 35.4032 14.5952L31.8309 30.086C31.5788 31.1676 30.5064 32.0501 29.4346 32.0501H21.7624C20.6929 32.0501 20.0252 31.1676 20.2751 30.086L23.8489 14.5952C24.0987 13.5099 25.1705 12.6281 26.2429 12.6281Z" fill="#E21836"/>
<path d="M33.2769 12.627H42.1006C43.1715 12.627 42.6886 13.5088 42.4367 14.5941L38.8649 30.0849C38.6143 31.1665 38.6925 32.049 37.6194 32.049H28.7957C27.7226 32.049 27.0585 31.1665 27.3106 30.0849L30.8821 14.5941C31.1357 13.5088 32.2053 12.627 33.2769 12.627Z" fill="#00447C"/>
<path d="M41.7507 12.627H49.4237C50.4962 12.627 51.1624 13.5088 50.9105 14.5941L47.3387 30.0849C47.0866 31.1665 46.0135 32.049 44.9411 32.049H37.2718C36.1986 32.049 35.533 31.1665 35.7844 30.0849L39.3567 14.5941C39.6065 13.5088 40.6776 12.627 41.7507 12.627Z" fill="#007B84"/>
<path d="M28.2463 17.5913C27.4573 17.5994 27.2243 17.5913 27.1498 17.5735C27.1212 17.7109 26.5888 20.1916 26.5873 20.1937C26.4726 20.6956 26.3892 21.0533 26.1059 21.2843C25.945 21.4186 25.7573 21.4834 25.5396 21.4834C25.1896 21.4834 24.9858 21.3079 24.9516 20.9751L24.945 20.8608C24.945 20.8608 25.0516 20.1886 25.0516 20.1848C25.0516 20.1848 25.6104 17.9241 25.7105 17.6253C25.7157 17.6083 25.7172 17.5994 25.7185 17.5913C24.6308 17.6009 24.438 17.5913 24.4247 17.5735C24.4174 17.5979 24.3905 17.7381 24.3905 17.7381L23.8199 20.286L23.7709 20.5021L23.6761 21.209C23.6761 21.4186 23.7169 21.5898 23.798 21.7345C24.058 22.1933 24.7995 22.262 25.219 22.262C25.7595 22.262 26.2665 22.1461 26.6091 21.9343C27.2039 21.5794 27.3595 21.0246 27.4982 20.5316L27.5626 20.2787C27.5626 20.2787 28.1382 17.9307 28.236 17.6253C28.2398 17.6083 28.2413 17.5994 28.2463 17.5913ZM30.2049 19.4854C30.0662 19.4854 29.8126 19.5194 29.5848 19.6322C29.5021 19.675 29.4239 19.7245 29.3415 19.7738L29.4159 19.5024L29.3751 19.4567C28.8921 19.5555 28.784 19.5687 28.3377 19.6322L28.3003 19.6573C28.2485 20.0912 28.2025 20.4174 28.0104 21.2702C27.9373 21.5846 27.8614 21.9019 27.7853 22.2155L27.8058 22.2553C28.2631 22.231 28.4019 22.231 28.7993 22.2376L28.8315 22.2022C28.882 21.941 28.8885 21.8798 29.0003 21.3507C29.0529 21.0999 29.1625 20.5487 29.2165 20.3524C29.3158 20.3059 29.4138 20.2602 29.5074 20.2602C29.7301 20.2602 29.703 20.4565 29.6944 20.5347C29.6848 20.666 29.6037 21.0948 29.5204 21.4629L29.4649 21.7005C29.4262 21.876 29.3837 22.0466 29.345 22.2206L29.3618 22.2553C29.8126 22.231 29.95 22.231 30.3349 22.2376L30.3802 22.2022C30.4498 21.7942 30.4701 21.6851 30.5936 21.091L30.6557 20.818C30.7763 20.2838 30.8369 20.013 30.7456 19.7923C30.6491 19.5451 30.4176 19.4854 30.2049 19.4854ZM32.3929 20.0447C32.1534 20.0912 32.0006 20.1221 31.8487 20.1422C31.6982 20.1665 31.5513 20.1886 31.3198 20.2211L31.3015 20.2379L31.2847 20.2513C31.2605 20.4255 31.2437 20.576 31.2117 20.753C31.1846 20.9361 31.1429 21.144 31.075 21.4429C31.0224 21.6716 30.9953 21.7513 30.9654 21.8318C30.9362 21.9123 30.9041 21.9905 30.845 22.2154L30.8588 22.2362L30.8704 22.2553C31.0868 22.2449 31.2284 22.2376 31.3739 22.2362C31.5192 22.2309 31.6697 22.2362 31.9028 22.2375L31.9231 22.2207L31.945 22.2022C31.9787 21.9994 31.9837 21.9448 32.0043 21.8458C32.0247 21.7396 32.0599 21.5927 32.1461 21.2001C32.1868 21.0158 32.2323 20.832 32.2746 20.6439C32.3185 20.4565 32.3645 20.2719 32.4083 20.0876L32.4017 20.0653L32.3929 20.0447ZM32.398 19.2906C32.1804 19.1608 31.7983 19.202 31.5411 19.3813C31.2847 19.5569 31.2555 19.8063 31.4725 19.9377C31.6864 20.0639 32.07 20.0263 32.3249 19.8456C32.5808 19.6661 32.6127 19.419 32.398 19.2906ZM33.7146 22.296C34.155 22.296 34.6065 22.1734 34.9463 21.8096C35.2078 21.5145 35.3276 21.0755 35.3692 20.8948C35.5044 20.2956 35.3991 20.0158 35.2669 19.8455C35.066 19.5857 34.711 19.5024 34.3428 19.5024C34.1214 19.5024 33.594 19.5245 33.1819 19.9082C32.8861 20.1849 32.7494 20.5604 32.6669 20.9205C32.5837 21.2873 32.4879 21.9477 33.0892 22.1934C33.2747 22.2739 33.5421 22.296 33.7146 22.296ZM33.6802 20.9478C33.7817 20.4941 33.9016 20.1133 34.2076 20.1133C34.4473 20.1133 34.4647 20.3967 34.3581 20.8519C34.339 20.9529 34.2515 21.3287 34.1331 21.4886C34.0505 21.6067 33.9527 21.6783 33.8446 21.6783C33.8124 21.6783 33.6211 21.6783 33.6181 21.3914C33.6166 21.2497 33.6452 21.105 33.6802 20.9478ZM36.4702 22.2376L36.5046 22.2023C36.5534 21.9411 36.5614 21.8797 36.6695 21.3508C36.7236 21.0999 36.8354 20.5487 36.888 20.3525C36.9874 20.3058 37.0838 20.2601 37.1803 20.2601C37.4015 20.2601 37.3746 20.4564 37.3658 20.5346C37.3578 20.666 37.2766 21.0946 37.1919 21.4628L37.1393 21.7004C37.0991 21.8761 37.0553 22.0465 37.0166 22.2206L37.0335 22.2554C37.4857 22.231 37.6179 22.231 38.005 22.2376L38.0518 22.2023C38.1197 21.7941 38.138 21.6849 38.2652 21.091L38.3258 20.8179C38.447 20.2837 38.5083 20.013 38.4185 19.7924C38.3192 19.5451 38.0862 19.4855 37.8765 19.4855C37.7376 19.4855 37.4827 19.5193 37.2562 19.6322C37.1752 19.6751 37.0941 19.7244 37.0144 19.7739L37.0838 19.5025L37.0465 19.4566C36.5637 19.5555 36.4533 19.5688 36.0076 19.6322L35.9734 19.6573C35.9194 20.0912 35.8754 20.4173 35.6834 21.2703C35.6102 21.5846 35.5343 21.902 35.4584 22.2155L35.4788 22.2554C35.9368 22.231 36.0735 22.231 36.4702 22.2376ZM39.7927 22.2553C39.8211 22.1151 39.99 21.2844 39.9915 21.2844C39.9915 21.2844 40.1353 20.6748 40.1441 20.6527C40.1441 20.6527 40.1893 20.5892 40.2346 20.5641H40.3012C40.9294 20.5641 41.6388 20.5641 42.1948 20.151C42.5731 19.8677 42.8318 19.4493 42.9472 18.9408C42.9771 18.8161 42.9992 18.6678 42.9992 18.5195C42.9992 18.3248 42.9604 18.1321 42.8486 17.9816C42.5651 17.5809 42.0005 17.5736 41.3487 17.5705C41.3466 17.5705 41.0274 17.5736 41.0274 17.5736C40.1931 17.584 39.8585 17.5809 39.721 17.5639C39.7095 17.6253 39.6876 17.7345 39.6876 17.7345C39.6876 17.7345 39.3887 19.1334 39.3887 19.1357C39.3887 19.1357 38.6735 22.11 38.6399 22.2502C39.3683 22.2413 39.667 22.2413 39.7927 22.2553ZM40.3464 19.7702C40.3464 19.7702 40.6642 18.3741 40.6627 18.3794L40.673 18.3078L40.6775 18.2532L40.8045 18.2664C40.8045 18.2664 41.4598 18.3233 41.4751 18.3248C41.7338 18.4259 41.8404 18.6863 41.7659 19.0263C41.698 19.3371 41.4985 19.5983 41.2421 19.7245C41.0309 19.8314 40.7723 19.8403 40.5058 19.8403H40.3334L40.3464 19.7702ZM42.3248 20.9737C42.2409 21.3352 42.1444 21.9956 42.7426 22.231C42.9334 22.313 43.1043 22.3373 43.2781 22.3284C43.4615 22.3184 43.6315 22.2255 43.789 22.0918C43.7748 22.1467 43.7606 22.2017 43.7464 22.2569L43.7735 22.2922C44.2038 22.2739 44.3374 22.2739 44.8036 22.2774L44.8459 22.245C44.914 21.8407 44.9781 21.4482 45.155 20.6749C45.2412 20.3045 45.3273 19.9376 45.4157 19.5687L45.4019 19.5281C44.9205 19.6182 44.7918 19.6375 44.3288 19.7038L44.2936 19.7327C44.2889 19.7703 44.2841 19.8063 44.2796 19.8424C44.2076 19.7249 44.1032 19.6246 43.9422 19.5621C43.7363 19.4803 43.2526 19.5857 42.8369 19.968C42.5448 20.241 42.4045 20.615 42.3248 20.9737ZM43.3359 20.9958C43.4389 20.5502 43.5573 20.1732 43.864 20.1732C44.058 20.1732 44.1601 20.3539 44.1393 20.6622C44.1229 20.7391 44.1051 20.8201 44.084 20.9117C44.0533 21.0442 44.02 21.1754 43.9876 21.3069C43.9547 21.3968 43.9164 21.4816 43.8743 21.5381C43.7954 21.6511 43.6076 21.7212 43.4995 21.7212C43.4688 21.7212 43.2796 21.7212 43.273 21.4393C43.2715 21.299 43.3001 21.1545 43.3359 20.9958ZM48.6156 19.5245L48.5784 19.4816C48.102 19.5791 48.0158 19.5946 47.5782 19.6543L47.546 19.6868C47.5445 19.692 47.5432 19.7002 47.5409 19.7075L47.5394 19.7002C47.2137 20.4593 47.2232 20.2956 46.958 20.8932C46.9565 20.866 46.9565 20.849 46.955 20.8201L46.8886 19.5245L46.8469 19.4816C46.3479 19.5791 46.3362 19.5946 45.8753 19.6543L45.8394 19.6868C45.8344 19.7022 45.8344 19.7192 45.8314 19.7378L45.8344 19.7444C45.892 20.0417 45.8781 19.9754 45.9359 20.4446C45.9629 20.6749 45.9988 20.9064 46.0257 21.1339C46.0711 21.5145 46.0966 21.7019 46.1521 22.2827C45.8409 22.8014 45.7672 22.9977 45.4676 23.4529L45.4697 23.4574L45.2587 23.7944C45.2346 23.8299 45.2127 23.8543 45.182 23.8647C45.1484 23.8815 45.1046 23.8845 45.0438 23.8845H44.9269L44.7532 24.4682L45.3492 24.4786C45.6992 24.4771 45.9191 24.3118 46.0375 24.0897L46.4123 23.441H46.4063L46.4457 23.3953C46.6979 22.8471 48.6156 19.5245 48.6156 19.5245ZM42.3248 27.1903H42.072L43.0078 24.0639H43.3183L43.4168 23.7418L43.4264 24.1C43.4148 24.3213 43.5872 24.5176 44.0402 24.4851H44.564L44.7443 23.8831H44.5472C44.4338 23.8831 44.3813 23.8542 44.3878 23.7923L44.3783 23.4279H43.4082V23.4298C43.0946 23.4364 42.158 23.4602 41.9683 23.5112C41.7389 23.5709 41.4971 23.7465 41.4971 23.7465L41.5921 23.4241H40.6846L40.4956 24.0639L39.5472 27.238H39.3631L39.1827 27.8357H40.99L40.9294 28.035H41.82L41.8791 27.8357H42.129L42.3248 27.1903ZM41.5833 24.6991C41.438 24.7397 41.1675 24.8629 41.1675 24.8629L41.408 24.0639H42.129L41.9551 24.6461C41.9551 24.6461 41.7323 24.6593 41.5833 24.6991ZM41.5971 25.8406C41.5971 25.8406 41.3706 25.8693 41.2216 25.9033C41.0748 25.9483 40.7995 26.09 40.7995 26.09L41.0478 25.2584H41.7725L41.5971 25.8406ZM41.1931 27.1976H40.4699L40.6796 26.4959H41.4006L41.1931 27.1976ZM42.9348 25.2584H43.9773L43.8275 25.7484H42.7712L42.6126 26.2841H43.5368L42.837 27.2794C42.788 27.3525 42.744 27.3784 42.6952 27.399C42.6462 27.4241 42.5819 27.4536 42.5075 27.4536H42.2511L42.0749 28.0403H42.7455C43.0941 28.0403 43.3001 27.8801 43.4521 27.6699L43.932 27.0065L44.035 27.6801C44.0569 27.8062 44.1467 27.8801 44.2075 27.9088C44.2746 27.9428 44.344 28.0012 44.442 28.0099C44.5471 28.0144 44.623 28.018 44.6735 28.018H45.0031L45.2009 27.3614H45.071C44.9963 27.3614 44.8679 27.3487 44.846 27.3251C44.8241 27.2964 44.8241 27.2522 44.8123 27.185L44.7078 26.5099H44.2797L44.4674 26.2841H45.5217L45.6838 25.7484H44.7078L44.8598 25.2584H45.8329L46.0134 24.6542H43.1123L42.9348 25.2584ZM34.1302 27.3341L34.3735 26.5165H35.3735L35.5562 25.9085H34.5553L34.7081 25.4053H35.6862L35.8674 24.8165H33.4201L33.2426 25.4053H33.7986L33.6503 25.9085H33.0928L32.908 26.5269H33.4638L33.1395 27.6085C33.0958 27.7517 33.1601 27.8063 33.2009 27.8728C33.2426 27.9376 33.2848 27.9805 33.3798 28.0048C33.4778 28.0269 33.545 28.0401 33.6363 28.0401H34.7636L34.9645 27.3666L34.4648 27.4359C34.3683 27.4359 34.101 27.4242 34.1302 27.3341ZM34.2449 23.4204L33.9915 23.883C33.9372 23.9841 33.8884 24.0468 33.8445 24.0757C33.8058 24.1001 33.7291 24.1103 33.618 24.1103H33.4858L33.309 24.7021H33.7481C33.9593 24.7021 34.1214 24.6239 34.1989 24.5848C34.2821 24.5398 34.304 24.5655 34.3683 24.5028L34.5166 24.373H35.8879L36.0698 23.7568H35.0661L35.2413 23.4204H34.2449ZM36.2693 27.3459C36.2459 27.3119 36.2627 27.2521 36.2984 27.1274L36.6732 25.8745H38.0065C38.2008 25.8716 38.3411 25.8694 38.4324 25.8628C38.5304 25.8524 38.637 25.817 38.7531 25.7536C38.873 25.6871 38.9343 25.617 38.9861 25.5365C39.0439 25.4563 39.1367 25.2806 39.2164 25.0097L39.6875 23.4241L38.3039 23.4323C38.3039 23.4323 37.8778 23.4957 37.6903 23.5658C37.501 23.644 37.2306 23.8624 37.2306 23.8624L37.3555 23.4277H36.5008L35.3042 27.4359C35.2618 27.5915 35.2334 27.7045 35.2268 27.7723C35.2246 27.8454 35.3181 27.9177 35.3787 27.9723C35.4503 28.0269 35.5562 28.018 35.6577 28.0269C35.7645 28.035 35.9164 28.0401 36.126 28.0401H36.7828L36.9844 27.3526L36.3964 27.4087C36.3336 27.4087 36.2882 27.3747 36.2693 27.3459ZM36.9151 25.0282H38.3155L38.2264 25.31C38.2139 25.3167 38.184 25.2961 38.0415 25.3131H36.8288L36.9151 25.0282ZM37.1956 24.083H38.6078L38.5062 24.4224C38.5062 24.4224 37.8406 24.4158 37.734 24.4357C37.265 24.5176 36.991 24.7708 36.991 24.7708L37.1956 24.083ZM38.2578 26.2538C38.2462 26.2959 38.2279 26.3216 38.2022 26.3409C38.1738 26.3594 38.1278 26.366 38.0592 26.366H37.8596L37.8714 26.0228H37.0414L37.0077 27.7007C37.0064 27.8218 37.018 27.8919 37.1057 27.948C37.1935 28.0181 37.4637 28.027 37.8275 28.027H38.3476L38.5353 27.3989L38.0826 27.424L37.932 27.4329C37.9114 27.424 37.8918 27.4159 37.8699 27.3938C37.8508 27.3747 37.8187 27.3864 37.8239 27.2653L37.8275 26.8352L38.3023 26.8154C38.5587 26.8154 38.6683 26.7311 38.7618 26.6509C38.851 26.574 38.8802 26.4856 38.9139 26.366L38.9935 25.9852H38.341L38.2578 26.2538Z" fill="#FEFEFE"/>
</svg>
